<svg width="48" height="48" fill="none" xmlns="http://www.w3.org/2000/svg"><path fill-rule="evenodd" clip-rule="evenodd" d="M48 24c0 13.254-10.745 24-24 24C10.746 48 0 37.254 0 24 0 10.745 10.746 0 24 0c13.255 0 24 10.745 24 24z" fill="#CAF1EF"/><path fill-rule="evenodd" clip-rule="evenodd" d="M24 36s-10-3.6-10-12v-8.4L24 12l10 3.6V24c0 8.4-10 12-10 12z" fill="#09B1BA"/><path fill-rule="evenodd" clip-rule="evenodd" d="M23.202 27.792l-4.702-4.64 1.613-1.59 3.089 3.048L28.887 19l1.613 1.59-7.298 7.202z" fill="#fff"/></svg>
