<svg width="75" height="75">
    <path fill="#EBEDEE" fill-rule="evenodd" clip-rule="evenodd" d="M55.61 33.12A27.53 27.53 0 0029.2 18.38c-14.58 1-19.8 11.88-17.57 9.33 1-1.22 1-1.41 1.38-1.19.38.22-.41.62-.53 1.3l-.51.52c-.53.3-.53.32-.48.53l-.2.22h-.2c.06-.18.12-.37.18-.57 0-.07-.18-.2-.24-.12-1.13 1.47-.67 1.57-.54 1.43.13-.14.22-.51.5-.62a.6.6 0 00.12.11 27.07 27.07 0 00-5.37 11c-3.34 13.66.69 18.6.87 19.61 2.81 5.23 3.32 5.11 4 6.08 6.86 9.63 28.41 14.26 41 .22.438-.558.92-1.08 1.44-1.56-4 7.68-13.44 10-13.54 10.09l.4.12-1.2.39c.78.59 3-.83 3.26-.1 0 .14-.65.86.73.33C58.13 69.91 64 48.72 55.61 33.12zm3.18 19.79c-.29-.64.12-.78-.16-1.43-.07-.16.76-.42.16 1.43zM59 51a.28.28 0 01-.14-.42c.1 0 .07-.06.21.4C59 50.93 59 51 59 51zm.12-1.35l-.13.24c-.18-.21-.19-.1 0-.4l.13.16zm-.61 4.71a.81.81 0 01.1-1c.39.76-.07 1.11-.15.95l.05.05zm-5 12c0-.61-.18-.09 1.5-2.36.18.59-.95 2-1.5 2.32v.04zm2-3c0-.56 0-.55.51-1.28a3.73 3.73 0 01-.53 1.21l.02.07zm1.44-2.84c-.32.75 0 .67-.56.92 0-.08-.07-.18 0-.24a7.19 7.19 0 00.46-1.07c0-.12 0-.28.06-.39a.22.22 0 01.36-.05c.04.08-.27.6-.34.76l.02.07zm.58-15.11a34.28 34.28 0 01.31 3.53h-.15a18.09 18.09 0 01-.18-3.6l.02.07zm-1.6 13.4l.47-1.39c0-.1.67-3 .63-2.84.4-1.95.48-4.84.71-5 .4 1.52-.48 8.77-4.59 15.1.08-.44 1.91-3.57 2.76-5.94l.02.07zM23.2 20.43c-.64.25-4.32 1.73-5 1.89a19.17 19.17 0 015-1.89zm-5.29 2.21c-1 .75-1.09.9-1.43.86a2.48 2.48 0 011.43-.86zm-2.3 1.57l.08.08c-5.1 4.27-.2-.03-.08-.08zM7.42 57.35c-1.36-1.64-.27-.88-1.14-2.46a8.75 8.75 0 01-.54-1.79c.116-.2.168-.43.15-.66.41 1.56 1.66 4.68 1.53 4.91zM52 68.06l.47-.9c.29-.46.7.6-.47.9zm0 0c-.12.21-.23.43-.35.67-.11-.49-.11-.48.35-.66v-.01zm-5.88 5c1.4-.86 1.43-1.45 1.94-1-.64.34-1.06.94-1.92.99l-.02.01zM20.21 19.79c-.87-1.07 10.86-3.85 12.63-2.38-.82.57-3.77-.3-12.34 2.48a.36.36 0 01-.29-.1zm37.52 42.67c0 .37 0 .39-.37 1-1.19 2.13-3.67 5.88-5.58 7.47-.38.33-.44-.07-.32-.14 2.54-1.46 6.28-9.62 6.27-8.33zM41.1 75.92c.23.59-6 1.53-7.27 1.66-.27 0-.47-.38.28-.48a16.19 16.19 0 003.27-.62 3.56 3.56 0 001.84-.23c.2-.07 1.78-.53 1.88-.33zm9.09-3.7c.28.41-3 2.21-3.22 2.6a2.16 2.16 0 01-1.55.63c.51-1 2-1.16 3.7-2.73.25-.26.88-.72 1.07-.5zm-14.45 6.01v.17c-.81.11-5.24.67-5.53-.09 1.08-.31 2.56.05 5.5-.08h.03zM20.52 76.4l.62.42c-.78.13-4.73-1.32-5.33-2.11 1.19 0 3.81 1.91 4.72 1.68l-.01.01zM8.9 69.59a9.88 9.88 0 01-3.16-3.81c1.49 1 .82 1.24 1.71 2a7.39 7.39 0 011.45 1.81zm16.4 8.06c.73.92-3.17-.26-3.45-.6 1.52-.35 1.67.69 3.15.45.08 0 .19.1.29.16l.01-.01zM3.86 44.59a5.4 5.4 0 01-.75 2.19c-.24-.58.27-1.85.44-2.24.04-.08.34-.1.31.05zm54.45 16.28c.09.22-.07.48-.16.68 0 0-.21.49-.28.45-.07-.04.06-.34.07-.38.01-.04.23-.84.31-.81a.12.12 0 01.06.06zM38.17 78c-.43.46-1.62.4-2.24.41v-.18c.63-.32 1.66-.69 2.24-.23zm21.48-36.58c.59-.25.91 5.15.17 1.66h.07c-.28-1.31-.38-1.6-.24-1.66zM11 71.39c1.08.6.75.53 2 1.29.24 1.13-1.62-.68-2-1.29zM44.9 21c.19-.35 1.74.68 1.77 1.19-1.43-1-1.9-.97-1.77-1.19zm11.67 12.13a3.88 3.88 0 01-.57-1.37c1.34 1 .85 1.71.57 1.37zM18 74.27a2 2 0 01-1.6-.62c-.07-.09.14-.42 1.6.62zm-9.91-7.46a9.66 9.66 0 01-1-1.1c-.23-.25.6-.42 1 1.1zm22 10.56c-.53 0 .37-.74 1.42 0-.51.03-.97.03-1.44 0h.02zM15 72.85c-.13-.28.43-.37 1 .44-.55-.01-.85-.1-1-.44zm25.44 4.42c.16.37-.41.36-1 .43-.16-.46.27-.37 1-.43zM59 39a.86.86 0 01.46.71c.04.44-.31.96-.46-.71zM3.11 47.74a.78.78 0 010-1c.52.26.25.52 0 1zm57.2-2.69a2 2 0 010 1.51c-.09-1.62-.07-1.2 0-1.51zM27.1 78.18c-.32.08-.65.19-.84-.18-.05-.1.25-.29.84.18zm-12.19-4.34c.092.143.172.294.24.45l-.26.09a8.9 8.9 0 01-.3-.46c-.09-.15.27-.17.32-.08zM37.18 18c0-.1.1-.09.4 0 .7.39-.46.26-.4 0zm19.9 15.79c.238.232.395.533.45.86-.35-.28-.35-.27-.45-.89v.03zm-5.35-7.49l.15-.11c.24.258.467.529.68.81a2 2 0 01-.83-.7zm3.71 4.82a3.22 3.22 0 01-.21-.46l.14-.09c.1.14.2.27.29.42.09.15-.18.22-.22.13zM27.86 76.94l-.15.28-.66-.22c.07-.41.46-.2.81-.06zM59 38.31h-.14c-.53-.58-.05-1.07.14 0zM29 77.24c.29-.23.17-.26.48 0-.24.23-.12.24-.48 0zM9.86 70.48h-.18c-.1-.08-.06 0-.12-.37.37.11.31.04.3.37zm1.92 0c.35 0 .47.12.46.29-.01.17-.32.12-.46-.27v-.02zM14 72.05c-.46-.13-.36-.14-.32-.37.38.32.32.19.32.37zm10.14 4.25l.82.19c-.24.16-.49.19-.82-.19zM8.6 67.42c-.14 0-.51-.44 0-.42.05.17.16.37 0 .42zm14.64 9s-.08-.11-.15-.2l.26-.06c.01.07.01.14 0 .21 0 0-.08.02-.11 0v.05zm34.93-40h.08c.41.76-.2.3-.08 0zM19.91 75.13h.07l.45.1a.3.3 0 01-.52-.1zM4.4 63.93l-.4-.71c.32.19.32.19.4.71zM50.92 25.5c-.28-.18-.21-.11-.17-.28.25.13.19.2.17.28zm2.4 2.55l.1-.07.23.24c-.13.09-.05.13-.33-.17zM10.81 69.43c-.17 0-.07.1-.37-.24.24-.03.14-.1.37.24zm15.37 7.36l.17-.18.16.19c-.28.12-.19.1-.33-.01zm21.66-54l-.28-.12c.36-.05.32-.07.36.09l-.08.03zm2 1.52l.21.06.07.17c-.37-.13-.28-.01-.3-.23h.02zm-7.25-4.53l-.3-.16c.14-.07.3-.12.28.16h.02zM30.19 78.3h-.32c-.08.08-.17.22-.26.22a4.53 4.53 0 01-1.54-.17c.44-.27.61-.29 1.73-.15a.29.29 0 01.39.1zM4 63.13c-.12-.26-.06.19-.5-1.21a.88.88 0 01.41 1.09l.09.12zM36 78.2h-.19.19z"></path>
    <path fill="#999" fill-rule="evenodd" clip-rule="evenodd" d="M63.56 25.52l-.19-.39c-.06-.1 0-.66 1.55 3.19a25.18 25.18 0 00-1.36-2.8zm21.16 58.69c-.08 0 .06.3 0 .29-.06-.01-.12 0-.24-.32-.1.28-.1.28-.25.42-.1-.14-.1-.36-.32-.39-.22-.03.23.18 0 .6s-.22-.23-.44-.24c.48 2-10.76-9.09-12.26-10.65-4.79-4.86-10.05-10.46-14.36-15.06-.34.3-.68.61-1 .89a1.74 1.74 0 01-.23.1l.21-.3c-.23.16-.46.32-.67.49-.41.34-.82.68-1.26 1l-.92.65-1 .59.16.16c-.64.41-1.28.74-1.92 1.07a1.19 1.19 0 01-.27.07l-.63.22c-.24 0-.33.14-.35.24a3.76 3.76 0 01-1.61.65c-.51.1-.999.283-1.45.54.5-.1.8-.19 1.21-.28-.79.33-2.1.91-2.42.74-.82.58-.91 0-1.5.43-1.75.13-4.15 1-7.23.43-.8-.47-4.92-.45-4.42-.79s-.74.07-1.5-.36l-.22-.06c-2.25-1.06-6.33-2-7.32-3.42-.31-.48-1 .24-4.22-2.94l-.11-.06c-1.8-1.19-2.28-2.57-2.89-2.92-4-2.35-7.28-17.27-5.4-20.74a2.09 2.09 0 010-1.26v.14a.32.32 0 000-.14 24 24 0 011.69-6.72c.12-1.91 1.73-3.43 1.82-4.19a3.1 3.1 0 01.38-.94c4.1-6.51 7.06-6.93 8.15-8.29a3.06 3.06 0 011.64-.9c.27-.2.33-.46.8-.63a4.71 4.71 0 001-.45c.11 0 6.51-2.92 8.25-2.34 1.14.37-.69-1 7.81-.17.5.32 1.57.21 2.17.56 1.08.56 1.29-.2 3.08 1 .66-.15 4.95 1.82 5.16 2.34h-.34c.39.23.58.39.66.24.23-.48 3.1 2.85 3.64 3.72.11.21.73.74.73 1l-.1-.06-.25-.21c0 .05.06.12 0 .16A.53.53 0 0156 18a2.5 2.5 0 01-.24-.22c-.13-.13-.2.12-.31 0V18c.41.63.59.63.91 1.12-.45.07-1.37-.71-1.42-1-.62.05-15.66-11.08-30.39-1.2-6.19 3.85-10.27 10.57-10.82 20.48 0 3.23.18 7.62 1.49 10.6l.52 1.18C20 58.05 30.87 62.89 38.91 62.82c14.44-.13 28.39-16.44 22.64-33.9-1-3.35-3.18-6.71-3.31-7.39.17 0 .33.08.46 0s.64 0 .92.18c5.27 3.59 5.95 10.75 6.3 11.12a21.45 21.45 0 01-.52-2.65c-.1-.08-.28-.66-.2-.73.08-.07.27.52.24.76-.03.24.13.47.19.7a.49.49 0 010 .07 21.61 21.61 0 01.69 4.9c.53 10-5.25 19.32-6.45 19.69-.56.16-.77.73-1.28 1.3.27-.24.45-.45.63-.63s.28-.07-.45.7c.52.2 3.07 2.68 12 11.27 4.31 4.17 4.56 4.79 4.74 4.79.18 0 .13.4.51.46a.26.26 0 01.25.27c0 .32.33.07.4.38.098.141.224.26.37.35.1 0 .9.94.94.94.31 0 .08.23.31.34.263.158.497.361.69.6 0 0 .09.19.11.18.22-.08.68.78.92.84 0 0 .06.05.08.1.06.22.1.14.2.2s.11 0 .78.71c.25.26.26.56.41.57.41 0 .22.37.61.53.39.16.59.82.88.87.29.05.23.51.58.61.278.285.535.589.77.91.08.13-.06.29.1.35s.18-.11.24-.06 0 .08 0 .15c0 .07 0 .29-.24.43 0 .21-.14.12-.29.22.6.78.52.59.24.78.32.12.16 0 .29.27.17-.12.16.17.06.21z"></path>
</svg>