<svg width="100" height="100" fill="none" xmlns="http://www.w3.org/2000/svg">
    <path fill-rule="nonzero" clip-rule="evenodd"
        d="M83 44c-.89 1.35.21 1.22-2.68 4.29l.5-.21c-1.46 2 1.82-2.71-15.61 15l-.13.22c.07.11 0 0 .14.18s2.12 8.87 2.2 9.23c0-.1 1.5 6.67 3 14.52-.0013723 1.4173818-.5704141 2.7751586-1.58 3.77-1.1558585.8302099-2.6037318 1.1451224-4 .87-1-.13-16.14-9.69-16.52-10.08a3.5299985 3.5299985 0 00-.92-.54c-.22-.52.23.26-1.83-.93.3284928.0482879.6424757.1677379.92.35-.29-.46-1.54-.88-2.42-1.72.13-.15 4.89 2.38 5.18 2.51-6.16-3.92-2.21-1.57-6.36-4.54a29.1300103 29.1300103 0 00-2.81 1.48c-.25-.1 0-.14-.88.13.21.49-.22-.1-.7.57-.38.52-.76-.17-.95.16.1142718.2556995.4077657.3783537.67.28.14.17 0 .29-.2.38-2.26.93-2 .89-2.33.46-.3.11-.3.11-.14.49L35 81c-.27.51-3.36 1.54-3.72 2 .2220699.0373464.4500999-.0089722.64-.13.11-.09.22-.19.4-.12.12-.15.31-.14.49-.16.18-.02 0-.31.31-.17.31.14.18-.26.39-.2.21.06.16 0 .29-.19h.06c.51.06.36-.54 1.18-.26 0-.24.1-.31.21-.29.11.02.25-.2.53-.24 0 .12-.06.2-.08.29 1.27 0 2.94-1.44 3.34-1 .26.27 4.59-2.45 4.13-1.53-.63 1.25-4.86 2.32-4.51 3a.25.25 0 01.15 0c.06.28 0 .27-.28.23 0 .12 0 .09-.07.11-.07.02 0-.06 0-.13l-.09-.35c-.31-.1-1.2.25-.94.86h-.28c-.16-.18 0 0-.21-.34-.2221241.176062-.2740751.492097-.12.73.11.12.1.2 0 .26s-.15.13-.29 0l-.13.08c-.16.31-.17.31-.71.29l-.25-.39c-.15.07 0 .29-.06.4-.46-.07-.3-.07-.62.06v-.25c0-.06-.31.11-.37.31s-.16.12-.22.17c-.2-.12.2-.24-.45-.16 0 .25.34.39-.08.34-.56-.36-.55.29-.65.36-1 .68-.62-.21-.93.07-.14.13-.13.41-.43.23-.11-.06-.4.09-.22.21.18.12.07.15 0 .2-.28.15-.7-.24-.59.25 0 .09 0 0-.34.19.12.44.36.46.09.71a13.6400006 13.6400006 0 01-1.79 1c0-.1 0-.27-.06-.32-.06-.05-.62.13-.8.29l.22.07c-.16.23-.4.42-.44.31-.11-.36-.44-.26-.57-.53-.13-.27-.16.35-.36.47-1.82 1-.14 1.23-2.92 2.24-.57.12-1.14 1-1.24.92-.1-.08-.61.28-.74.06 0 0-.06 0-.09.06-.78.19-.32 0 .13-.63-.2472968.0445066-.4804127.1473519-.68.3-.08.13-.82 1-.47 0l-.45.38c.64-1-1.79.9-2.51-.23a1.8299997 1.8299997 0 01-.18-.73c.27-.65-.51-.24-.21-1.26.12-.37-.7-.83-.06-1.44-.39.1-.46-.17-.21-.75l.26-.07c0-.19 0-.33-.21-.24-.21.09 2.53-17.54 2.65-17.67.4-.24.52-1.5.48-1.78h-.24c0-.1-.14-.22 0-.32.33-.2.58-2.19.51-2.09-.07.1 0-.1-.07-.16s.07-.18-.08-.41l-.68-.07a5.720003 5.720003 0 00-.57-.39c-2.87-1.71-9.68-8.13-9.65-8.45.03-.32-.09 0-1.39-1.38-.11-.1-.35-.12-.13-.46a12.2899972 12.2899972 0 00-1.66-1.69c-.18-.48-.8-.6-.86-.94 0-.2-.23-.2-.35-.3-.12-.1 0-.22 0-.17-.28.15-.38 0-.73-.3.23 0 .23 0 .45.13 0-.37-.6-.5-.74-1.1.35-.35.69.71 1 .49.022776-.0203715.057224-.0203715.08 0 .07.27.41.19.57.34a1.8499994 1.8499994 0 00.54.37c-2.32-2.5-.86-1.68-1.5-2.38-.47-.48-.33-.33-.47-.52a3.9999966 3.9999966 0 01.65.11l-.18-.39c.38-.32 1.93 1.13 2.81 1.29-1.55-1.53.54-.62.9-.17C9.14 48 9.77 49 10 49c.23 0 .24 0 .12.19s-.07.31.69.81c.17-.3-.78-.29-.29-.81l-4.83-4.14c-.2609224-.3044475-.3477713-.721303-.2301398-1.1046196.1176316-.3833166.4233579-.6796993.8101398-.7853804L8.66 43c-.64 0-1.8 0-2.4-.08-.48003.0389333-.9121722.3059897-1.1617018.7179114C4.8487687 44.0498332 4.8122027 44.5565175 5 45c-.62-1.17 0-2.24.52-2.11 1.07-.78 4.09-.25 5.63-.29l-1.1-.1c1.58-.47 5 0 12.18-.45-5.8.1-13 .11-13.91.16-.241488.0944227-.5023062.1287408-.76.1L6 42.25c-.78003.1608645-1.4122073.7307509-1.6528358 1.4899755C4.1065356 44.4992002 4.2950356 45.3291919 4.84 45.91c.21.94-2.47-3.07 1.08-4-.28-.16 7.7-.32 8.21-.48.39.15-.11.11 1.91.14.12-.42.29 0 1.72-.16.5349265-.1821038 1.1150735-.1821038 1.65 0 .2407972.1234392.5191589.1519891.78.08-.06-.35-.57-.37-1-.39-.21-.4 5.42-.3 5.52-.3.4 0 .44.06.54.33.72 0 .72 0 .83-.33l1.37.06a20.809994 20.809994 0 014.09-.19c1.52-3.42 1.68-3.59 1.87-4.25a4.9399976 4.9399976 0 00-.71 1.25c-.0833814.3058409-.2336687.5893374-.44.83a2.1800004 2.1800004 0 01-.43.8c-.11.17 0 .48-.24.56-.24.08-.18.4-.23.56-.21.05-.22-.17-.8 0a.2300005.2300005 0 01-.12 0c-.8-.19-1 .31-2.31-.14-.2093281.1715132-.4871774.2344923-.75.17-.48-.12-.71.08-1.34 0l.48-.2a13.3700049 13.3700049 0 00-2.3-.09c-7.49.38-4.74-.1-5.87-.1-22.65-.12 2.66-.45 2.77-1h-.31c.23-.27.47-.19.81-.11.16-.09.09-.07.28-.07-.1.09-.05.06-.24.09l-.2.3a7.730001 7.730001 0 002.58-.09c.38-.06.24-.18.29-.32l.56.07c.06.08.08 0 .05.32 1.59-.16.65-.85 1.72-.79 0 0 .08.1.11.15h.36c.5638571-.193524 1.1761429-.193524 1.74 0L29 39c.2 0 .29-.06.29-.11a.4899993.4899993 0 01.06-.16c.31.21.25.15.53.17a.8000034.8000034 0 01-.06.17c.16 0 .35 0 .43-.09.0283048-.0142629.0616952-.0142629.09 0l.06-.13c.16 0 0 .37.34-.05-.11-.23-.36-.2-.07-.36.51 0 .28-.59.45-1 .36-.92.55-1.6.78-1.4.23.2.25-.88.65-1.09.11-.06.33-.53.11-.43-.22.1 0-.34.3-.64s-.12-.1.33-1c-.18-.11-.7 0-.32-.64.38-.64.61-1.64 1.08-2.43.46.13.76-.69.89-1.15l-.26.28c0-.3.13-.67.24-.69.35-.07.65-.59 1-.76.16-.08.19-.2.1-.32-.28-.37.64-1.21.44-1.66-.43-.57 1-3.33 1.77-5 1.1-2.18.29-1.48 1.85-3.37.51-.53.46-.33.68-.58.86-.73.79-.41.69-.33-.29.21-.28.17-.39.55.416717-.3321989.9132034-.5494117 1.44-.63.17-.22 1.18-.39 1.37.41l.5.12c-.05.1-.11.17.1.35 3.28 2.85 8.64 16.45 8.54 16.51.4740085.4133591.7799889.9861827.86 1.61l-.27-.19c.39 1 .73.55.83 1.27a8.4699995 8.4699995 0 001.29 2.49s5.73.55 14.6 1.12c13.1 1 10 1.37 12.55 2.75.19 0 .43.64.39.8A1.7200005 1.7200005 0 0183 44zM57.38 83.44c0-.32-1.69-.68-1.33-1.17l-6.73-3.92-3.56-2.07A8.0000005 8.0000005 0 0043.49 75c-.81-.17-1.31.65-2 .87a9.1099967 9.1099967 0 012-.4c-.34.43-.39.6-.63.34-1.66 1.33-.77.19-2.21.85l.52-.06c-.28.55-2.74 1.29-3.36 1.43l-1.41.83c1-.41 5.56-2.14 5.66-2.2 0-.26.12-.16 1.94-.54.18.24 0 0-1 .71a6.3699974 6.3699974 0 001.17.46l-.7-.57c.35-.24 4.75 2.35 6.29 2.87l-.37-.23c-3.75-2.37.9-.21 1.8.4 1.16.34 3.36 2 3.72 2 .36 0 .42.1.41.3-.02.4.55.59 2.06 1.38zm-27-45.59c-.12.3-.33.17-.14.49.94-1.01.82-2.34.18-.49h-.04zm5.17-10.64c0-.2 0-.4.08-.71-.85 1.22-.53.62-.89.83.04.37.73.55.85-.12h-.04zM17.11 39.15l-1.47.16c1 .5 2.2-.24 1.47-.16zm-1.6.23l.12-.07v-.1l.1-.15c-.27 0-.2 0-.28.07-1.22.23-.59.65.06.25zm15.91-3.66s-.09.09-.15.16c-.27 1.17.46.05.15-.16zm2.49-6.28c.17-.14.29-.19.37-.31.08-.12-.07-.93-.37.31zm-21.42 12c-.18-.12.09-.11-1 0v.07c1.02-.04.75-.04 1-.12v.05zm25.58-21.61c-.08.11-.3.63-.14.67a1.0500009 1.0500009 0 00.24 0c.19-.61.05-.9-.1-.67zm33.81 36.83h-.09c-.64.61-.51.69.09 0zM36 25.54a.2699998.2699998 0 00-.1.11c-.38.73.62-.05.1-.11zM13.43 41.35c.29.07 0 0 .73 0-.24-.21-.69-.12-.73.01v-.01zm31.04-24.64c-.0396118-.0389103-.0949644-.0573611-.15-.05.13.1.08.09.15.05zM33.38 84.94c.59-.58.87-.16.78-.62-1.55.35-.88.68-.78.62zm-6.67 3.23c.93 0 .34 0 .61.36.07-.1.19-.13.11-.85-.06-.48-.54.25-.72.49zm13.6-6.88l.51-.39c-.68-.38-.82.59-.51.39zm.52-.49v.1l.06.1v.18c.1-.09.07-.06.07-.11.41-.43-.1-.78-.13-.27zm-12.09 6.87c-.13-.07-.2-.17-.28-.15-.08.02-.46.91.28.15zm-4.82 2.18a1.150001 1.150001 0 00-.3.45c-.13.34.25.37.3-.45zm-3.43-25.77h-.18.21s-.01.01-.03 0z"
        fill="#EBEDEE"/>
    <path fill-rule="nonzero" clip-rule="evenodd"
        d="M90.94 33.66c.15 0-2.65-.38-20.54-1.41l-7.66-.39c0-.11-3.64-10.39-9.3-25.74-.4810466-.992324-1.5319665-1.5772027-2.6288165-1.4630408-1.09685.114162-2.0047992.9029229-2.2711835 1.9730408.11-.28-1.36 3.64-9.55 25.2h-.62c-20.5.95-.63.63-23.35.73C-1 32.68 30 53 31 55c.49.92-8.2 25.28-6.6 27.44.7910289 1.0943428 2.2688819 1.436043 3.46.8.1-.07 17.26-11 18.37-11.71.43-.3.91-.58 1.43-.87 1.16-.65 1.88-1 3.14-1.81.1.07 22.12 15.1 23.39 15.23 1.5802485.170884 3.0069216-.9535655 3.21-2.53.21-1.14-6.35-22.72-7.09-27.38C70.56 54 87.94 41.05 88 39.09c.29 0 1.1-.72 1.07-1.12-.47.19-.5.36-1.13.61h-.21c.12-.08-.1-.2 0-.29a1.1599979 1.1599979 0 00.29-.26c0-.09-.1 0-.15-.06.29-.26.17-.11.27-.26-.3-.07-.05.18-1.85.73-.57.17-1.06.74-3 1.6-.21.09.09.21 0 .33-.09.12-.2.17-.36.3 0-.14.07-.21.1-.28a62.08999 62.08999 0 00-6.85 5.44c-1.72 1-6.83 5.08-7.73 5.41-1.65 1.29-1.9 1.66-1.24 5 .11.56.23 1.14.35 1.71 1.29 5.55 5.74 21.49 5.77 21.59-4.93-3-21.27-14.17-21.84-14.35a2.0900026 2.0900026 0 00-.36-.09c-1.5-.48-15.76 9.16-15.86 9.23l.18-.15a6.7499999 6.7499999 0 00-1.78 1.27 37.0000045 37.0000045 0 00-5.33 3.14c1.09-3.68.66-2.3 2-7.11 4.71-16.87 5.77-16.84 1.74-20.48-1.54-1.41-9.75-7.46-9.95-7.71a9.000001 9.000001 0 00-2.07-1.79c-1.33-.91-3.92-4.09-5.43-5.46.19 0 .5 0 .33.07-.93.58 17-.46 17.23-.51a11.7200035 11.7200035 0 012.62-.12c1.13-.33.9.18 2.6-.22a8.15 8.15 0 002.59-.12l.21-.15h-.61l.55-.07c-.2.15 1-.73 1.53-1.09v.11L40 35.14h.21L41.76 34l.1-.27.43-1.19-.61 1.31-.1.08c0-.1 1.82-4.69 1.87-4.79-.0116316-.248921.0586186-.494797.2-.7l.48-1c.28-.52-.08.36 1.58-4h-.22c3.14-8.19 1.68-4.58 2.92-7.64 0 .19-.07.37-.12.61.4-.75-.34.93 2.81-7.23 2.14 5.44 7.13 19.74 8.91 24.85 3 2.18-2.72-2 1.45 1.06h.26c1.77 0 7.22.49 15.51.83a20.4399991 20.4399991 0 002.72.09 3.3 3.3 0 00-1.29-.01 33.4300003 33.4300003 0 00-4.66-.31c1.77-.52 16 2 18.32-1.63a4.2100004 4.2100004 0 00-1.38-.4zm-3.71 2.69h-1l-4.34-.15v-.05c1.25.02 6.59.15 5.34.2z"
        fill="#999"/></svg>

