<svg width="32" height="32" fill="none" xmlns="http://www.w3.org/2000/svg"><path d="M20.77 24.283c1.585-1.519 3.228-3.053 4.448-4.893.423-.642.796-1.314 1.088-2.008l-1.235.095-6.499-.394-10.494.065c.825 1.154 1.775 2.22 2.673 3.192 2.14 2.307 4.396 4.483 6.616 6.696 1.14-.913 2.352-1.745 3.403-2.753Z" fill="#FFD873"/><path d="m25.071 17.477 1.234-.095c.519-1.234.79-2.541.665-3.929-.27-3.096-2.6-4.513-4.075-4.673-2.578-.285-4.593 1.16-6.141 3.125-.358.453-1.132.373-1.505 0-.153-.153-1.117-2.468-1.782-3.052-1.504-1.322-4.885-.161-4.892-.161a.832.832 0 0 0-.241.204c-.701.906-1.242 1.87-1.49 3.038-.49 2.293.854 4.689 1.234 5.222l10.494-.073 6.5.394Z" fill="#3796FF"/><path d="M21.654 19.332c-.715 1.716-1.847 3.228-3.06 4.622a33.28 33.28 0 0 1-1.935 2.001 38.724 38.724 0 0 1-2.088 1.84l-.373.3-.35-.336a177.081 177.081 0 0 1-5.733-5.74c-.927-.993-1.855-1.979-2.695-3.11-.817-1.14-1.511-2.403-1.906-3.805-.387-1.38-.481-2.98.168-4.418a5.052 5.052 0 0 1 1.403-1.84c.584-.49 1.226-.848 1.913-1.133 1.365-.555 2.965-.715 4.425-.219 1.475.49 2.63 1.614 3.374 2.848l-1.147.022a8.139 8.139 0 0 1 1.739-1.986 6.489 6.489 0 0 1 2.351-1.263c1.782-.49 3.68-.066 5.127.993 1.475 1.059 2.307 2.87 2.307 4.63.007 1.774-.818 3.44-2.066 4.52.591-1.548 1.044-3.023.978-4.498-.037-1.468-.73-2.878-1.913-3.696-1.161-.818-2.746-1.132-4.075-.73-1.351.387-2.541 1.497-3.294 2.687l-.584.92-.555-.905c-.65-1.052-1.563-1.899-2.673-2.256-1.102-.373-2.358-.256-3.476.211-1.117.475-2.132 1.22-2.578 2.257-.481 1.037-.452 2.3-.124 3.498.329 1.197.935 2.344 1.68 3.396.745 1.044 1.643 2.044 2.541 3.037a167.098 167.098 0 0 0 5.58 5.799l-.73-.037a46.071 46.071 0 0 0 2.066-1.752c.672-.607 1.35-1.205 2-1.84 1.323-1.257 2.579-2.55 3.703-4.017Z" fill="#333"/></svg>
